<svg id="Layer_1" data-name="Layer 1" xmlns="http://www.w3.org/2000/svg" viewBox="0 0 1144.32 378.16">
    <defs>
        <style>
            .cls-1,.cls-2{fill:none;stroke-miterlimit:10;stroke-width:8px;}.cls-1{stroke:#29abe2;}.cls-2{stroke:#ff7bac;}
        </style>
    </defs>
    <title>logo2</title>
    <path class="cls-2"
          data-ignore="true"
          d="M40.91,422.72c11.44,6.07,26.09-2.78,30-18.15s-3.59-34.08-15.48-38.4C36,359.1,19.53,386.84,13.8,412.28c-5.3,23.52-6.32,51.18,5.26,70.41,13.52,22.44,40,24.79,59.76,12.75s34.18-35.05,47.32-57.88c50.49-87.75,92.42-184,124.44-285.68a1159.57,1159.57,0,0,0-58.77,230.58C255.44,314.34,308.86,229.77,348.09,135c-33,111.41-95,208-112.88,325.25-1.33,8.76-2.34,18.32.78,26.27,4.17,10.65,14.8,14.71,23.68,12s16.23-10.76,22.6-19.32c25.17-33.8,39.89-78.35,54.08-121.83l-17.58,86.82c-1.48,7.31-2.51,16.55,2.06,21.15,4.38,4.42,10.7,1.18,15.41-2.61,23.38-18.8,41.31-49,49.48-83.43a241.27,241.27,0,0,0-16.11,62.82c-.72,6.06-1.19,12.52.75,18.09,5,14.44,21.31,12.73,32,5.32,31-21.49,46.91-66.94,60.72-109.24q21.21-65,42.43-129.95c-17.64,82.14-50,157.29-82,231.52l65.14-121.91c5.62-10.52,11.58-21.44,20.26-27.35,9.05,12.62,3.11,34.55-7.39,45s-24,13.94-35.86,21.58-23,23-20.67,40.06c3.1,22.75,26.66,28.87,43.41,21.82,24.38-10.26,44.1-37.86,50.38-70.5-10.53,20.63-14.31,47-10.23,71.26,23.24-10.12,42.87-33.73,52.6-63.26-3.55,14.27-7.14,29.18-5.49,44s10.29,29.54,21.7,30.17c5.11.28,10.09-2.22,14.62-5.36C640,424,654,382,662.26,341.83S675.47,259,693.38,224.68a1477.32,1477.32,0,0,1-36.92,158.61c-5,17-10.37,34.86-8.75,53s13,36.26,26.89,34.66"
          transform="translate(-2 -128.46)"/>
    <path class="cls-2"
          data-ignore="true"
          d="M819.78,267.47c-5,15.9-14.51,29.24-26.27,36.75-5.77,3.69-13,5.84-18.35,1.13-3.87-3.41-5.74-9.72-6.14-15.82-.93-14.25,5.13-28.15,13.61-37.1s19.09-13.63,29.68-16.86c9.07-2.76,19.16-4.4,27.21,1.76,9,6.85,12.74,21.86,11.85,35.43s-5.6,26.13-10.22,38.31q-31,81.6-61.94,163.2l45.14-107.42c3.16-7.52,6.42-15.21,11.33-20.89,9.57-11.1,23.32-12.51,35.44-17.79,28.1-12.23,48.78-49.39,49.15-88.31.16-16-3.47-33.24-13.29-42.63q-14.79,92.13-25.21,185.35c-1.73,15.52-3.15,32.55,3.19,45.84s23.84,17.33,29.48,3.51"
          transform="translate(-2 -128.46)"/>
    <path class="cls-2"
          data-ignore="true"
          d="M950.71,347.7c-16.36,10.46-23.69,35.33-29.58,58-1.82,7-3.11,16.25,1.52,20.4,4,3.61,9.49.32,13.47-3.41,14.83-13.91,26.2-34.08,32-56.78a134.44,134.44,0,0,0-1.74,33.19c.43,6,2.35,13.33,6.91,13.83,2.38.26,4.57-1.6,6.48-3.5,14.43-14.34,24.79-35.61,28.67-58.85a218.82,218.82,0,0,1,16.28,36.9c2.18,6.47,4.14,13.51,3.19,20.48s-5.86,13.47-11.17,12.25c25.25-21.14,52.71-46.3,58.76-84.85-13,23.21-6.93,58.44,9.18,77.92s39.45,25.44,61.3,23.66"
          transform="translate(-2 -128.46)"/>
    <path class="cls-1"
          data-ignore="true"          d="M36.91,417.72c11.44,6.07,26.09-2.78,30-18.15s-3.59-34.08-15.48-38.4C32,354.1,15.53,381.84,9.8,407.28c-5.3,23.52-6.32,51.18,5.26,70.41,13.52,22.44,40,24.79,59.76,12.75s34.18-35.05,47.32-57.88c50.49-87.75,92.42-184,124.44-285.68a1159.57,1159.57,0,0,0-58.77,230.58C251.44,309.34,304.86,224.77,344.09,130c-33,111.41-95,208-112.88,325.25-1.33,8.76-2.34,18.32.78,26.27,4.17,10.65,14.8,14.71,23.68,12s16.23-10.76,22.6-19.32c25.17-33.8,39.89-78.35,54.08-121.83l-17.58,86.82c-1.48,7.31-2.51,16.55,2.06,21.15,4.38,4.42,10.7,1.18,15.41-2.61,23.38-18.8,41.31-49,49.48-83.43a241.27,241.27,0,0,0-16.11,62.82c-.72,6.06-1.19,12.52.75,18.09,5,14.44,21.31,12.73,32,5.32,31-21.49,46.91-66.94,60.72-109.24q21.21-65,42.43-129.95c-17.64,82.14-50,157.29-82,231.52l65.14-121.91c5.62-10.52,11.58-21.44,20.26-27.35,9.05,12.62,3.11,34.55-7.39,45s-24,13.94-35.86,21.58-23,23-20.67,40.06c3.1,22.75,26.66,28.87,43.41,21.82,24.38-10.26,44.1-37.86,50.38-70.5-10.53,20.63-14.31,47-10.23,71.26,23.24-10.12,42.87-33.73,52.6-63.26-3.55,14.27-7.14,29.18-5.49,44s10.29,29.54,21.7,30.17c5.11.28,10.09-2.22,14.62-5.36C636,419,650,377,658.26,336.83S671.47,254,689.38,219.68a1477.32,1477.32,0,0,1-36.92,158.61c-5,17-10.37,34.86-8.75,53s13,36.26,26.89,34.66"
          transform="translate(-2 -128.46)"/>
    <path class="cls-1"
          data-ignore="true"
          d="M815.78,262.47c-5,15.9-14.51,29.24-26.27,36.75-5.77,3.69-13,5.84-18.35,1.13-3.87-3.41-5.74-9.72-6.14-15.82-.93-14.25,5.13-28.15,13.61-37.1s19.09-13.63,29.68-16.86c9.07-2.76,19.16-4.4,27.21,1.76,9,6.85,12.74,21.86,11.85,35.43s-5.6,26.13-10.22,38.31q-31,81.6-61.94,163.2l45.14-107.42c3.16-7.52,6.42-15.21,11.33-20.89,9.57-11.1,23.32-12.51,35.44-17.79,28.1-12.23,48.78-49.39,49.15-88.31.16-16-3.47-33.24-13.29-42.63q-14.79,92.13-25.21,185.35c-1.73,15.52-3.15,32.55,3.19,45.84s23.84,17.33,29.48,3.51"
          transform="translate(-2 -128.46)"/>
    <path class="cls-1"
          data-ignore="true"
          d="M946.71,342.7c-16.36,10.46-23.69,35.33-29.58,58-1.82,7-3.11,16.25,1.52,20.4,4,3.61,9.49.32,13.47-3.41,14.83-13.91,26.2-34.08,32-56.78a134.44,134.44,0,0,0-1.74,33.19c.43,6,2.35,13.33,6.91,13.83,2.38.26,4.57-1.6,6.48-3.5,14.43-14.34,24.79-35.61,28.67-58.85a218.82,218.82,0,0,1,16.28,36.9c2.18,6.47,4.14,13.51,3.19,20.48s-5.86,13.47-11.17,12.25c25.25-21.14,52.71-46.3,58.76-84.85-13,23.21-6.93,58.44,9.18,77.92s39.45,25.44,61.3,23.66"
          transform="translate(-2 -128.46)"/>

    <path class="cls-1"
          data-start="0" data-duration="60"
          d="M36.91,417.72c11.44,6.07,26.09-2.78,30-18.15s-3.59-34.08-15.48-38.4C32,354.1,15.53,381.84,9.8,407.28c-5.3,23.52-6.32,51.18,5.26,70.41,13.52,22.44,40,24.79,59.76,12.75s34.18-35.05,47.32-57.88c50.49-87.75,92.42-184,124.44-285.68a1159.57,1159.57,0,0,0-58.77,230.58C251.44,309.34,304.86,224.77,344.09,130c-33,111.41-95,208-112.88,325.25-1.33,8.76-2.34,18.32.78,26.27,4.17,10.65,14.8,14.71,23.68,12s16.23-10.76,22.6-19.32c25.17-33.8,39.89-78.35,54.08-121.83l-17.58,86.82c-1.48,7.31-2.51,16.55,2.06,21.15,4.38,4.42,10.7,1.18,15.41-2.61,23.38-18.8,41.31-49,49.48-83.43a241.27,241.27,0,0,0-16.11,62.82c-.72,6.06-1.19,12.52.75,18.09,5,14.44,21.31,12.73,32,5.32,31-21.49,46.91-66.94,60.72-109.24q21.21-65,42.43-129.95c-17.64,82.14-50,157.29-82,231.52l65.14-121.91c5.62-10.52,11.58-21.44,20.26-27.35,9.05,12.62,3.11,34.55-7.39,45s-24,13.94-35.86,21.58-23,23-20.67,40.06c3.1,22.75,26.66,28.87,43.41,21.82,24.38-10.26,44.1-37.86,50.38-70.5-10.53,20.63-14.31,47-10.23,71.26,23.24-10.12,42.87-33.73,52.6-63.26-3.55,14.27-7.14,29.18-5.49,44s10.29,29.54,21.7,30.17c5.11.28,10.09-2.22,14.62-5.36C636,419,650,377,658.26,336.83S671.47,254,689.38,219.68a1477.32,1477.32,0,0,1-36.92,158.61c-5,17-10.37,34.86-8.75,53s13,36.26,26.89,34.66"
          transform="translate(-2 -128.46)"/>
    <path class="cls-1"
          data-start="60" data-duration="20"
          d="M815.78,262.47c-5,15.9-14.51,29.24-26.27,36.75-5.77,3.69-13,5.84-18.35,1.13-3.87-3.41-5.74-9.72-6.14-15.82-.93-14.25,5.13-28.15,13.61-37.1s19.09-13.63,29.68-16.86c9.07-2.76,19.16-4.4,27.21,1.76,9,6.85,12.74,21.86,11.85,35.43s-5.6,26.13-10.22,38.31q-31,81.6-61.94,163.2l45.14-107.42c3.16-7.52,6.42-15.21,11.33-20.89,9.57-11.1,23.32-12.51,35.44-17.79,28.1-12.23,48.78-49.39,49.15-88.31.16-16-3.47-33.24-13.29-42.63q-14.79,92.13-25.21,185.35c-1.73,15.52-3.15,32.55,3.19,45.84s23.84,17.33,29.48,3.51"
          transform="translate(-2 -128.46)"/>
    <path class="cls-1"
          data-start="80" data-duration="40"
          d="M946.71,342.7c-16.36,10.46-23.69,35.33-29.58,58-1.82,7-3.11,16.25,1.52,20.4,4,3.61,9.49.32,13.47-3.41,14.83-13.91,26.2-34.08,32-56.78a134.44,134.44,0,0,0-1.74,33.19c.43,6,2.35,13.33,6.91,13.83,2.38.26,4.57-1.6,6.48-3.5,14.43-14.34,24.79-35.61,28.67-58.85a218.82,218.82,0,0,1,16.28,36.9c2.18,6.47,4.14,13.51,3.19,20.48s-5.86,13.47-11.17,12.25c25.25-21.14,52.71-46.3,58.76-84.85-13,23.21-6.93,58.44,9.18,77.92s39.45,25.44,61.3,23.66"
          transform="translate(-2 -128.46)"/>
    <path class="cls-2"
          data-start="0" data-duration="60"
          d="M40.91,422.72c11.44,6.07,26.09-2.78,30-18.15s-3.59-34.08-15.48-38.4C36,359.1,19.53,386.84,13.8,412.28c-5.3,23.52-6.32,51.18,5.26,70.41,13.52,22.44,40,24.79,59.76,12.75s34.18-35.05,47.32-57.88c50.49-87.75,92.42-184,124.44-285.68a1159.57,1159.57,0,0,0-58.77,230.58C255.44,314.34,308.86,229.77,348.09,135c-33,111.41-95,208-112.88,325.25-1.33,8.76-2.34,18.32.78,26.27,4.17,10.65,14.8,14.71,23.68,12s16.23-10.76,22.6-19.32c25.17-33.8,39.89-78.35,54.08-121.83l-17.58,86.82c-1.48,7.31-2.51,16.55,2.06,21.15,4.38,4.42,10.7,1.18,15.41-2.61,23.38-18.8,41.31-49,49.48-83.43a241.27,241.27,0,0,0-16.11,62.82c-.72,6.06-1.19,12.52.75,18.09,5,14.44,21.31,12.73,32,5.32,31-21.49,46.91-66.94,60.72-109.24q21.21-65,42.43-129.95c-17.64,82.14-50,157.29-82,231.52l65.14-121.91c5.62-10.52,11.58-21.44,20.26-27.35,9.05,12.62,3.11,34.55-7.39,45s-24,13.94-35.86,21.58-23,23-20.67,40.06c3.1,22.75,26.66,28.87,43.41,21.82,24.38-10.26,44.1-37.86,50.38-70.5-10.53,20.63-14.31,47-10.23,71.26,23.24-10.12,42.87-33.73,52.6-63.26-3.55,14.27-7.14,29.18-5.49,44s10.29,29.54,21.7,30.17c5.11.28,10.09-2.22,14.62-5.36C640,424,654,382,662.26,341.83S675.47,259,693.38,224.68a1477.32,1477.32,0,0,1-36.92,158.61c-5,17-10.37,34.86-8.75,53s13,36.26,26.89,34.66"
          transform="translate(-2 -128.46)"/>
    <path class="cls-2"
          data-start="60" data-duration="20"
          d="M819.78,267.47c-5,15.9-14.51,29.24-26.27,36.75-5.77,3.69-13,5.84-18.35,1.13-3.87-3.41-5.74-9.72-6.14-15.82-.93-14.25,5.13-28.15,13.61-37.1s19.09-13.63,29.68-16.86c9.07-2.76,19.16-4.4,27.21,1.76,9,6.85,12.74,21.86,11.85,35.43s-5.6,26.13-10.22,38.31q-31,81.6-61.94,163.2l45.14-107.42c3.16-7.52,6.42-15.21,11.33-20.89,9.57-11.1,23.32-12.51,35.44-17.79,28.1-12.23,48.78-49.39,49.15-88.31.16-16-3.47-33.24-13.29-42.63q-14.79,92.13-25.21,185.35c-1.73,15.52-3.15,32.55,3.19,45.84s23.84,17.33,29.48,3.51"
          transform="translate(-2 -128.46)"/>
    <path class="cls-2"
          data-start="80" data-duration="40"
          d="M950.71,347.7c-16.36,10.46-23.69,35.33-29.58,58-1.82,7-3.11,16.25,1.52,20.4,4,3.61,9.49.32,13.47-3.41,14.83-13.91,26.2-34.08,32-56.78a134.44,134.44,0,0,0-1.74,33.19c.43,6,2.35,13.33,6.91,13.83,2.38.26,4.57-1.6,6.48-3.5,14.43-14.34,24.79-35.61,28.67-58.85a218.82,218.82,0,0,1,16.28,36.9c2.18,6.47,4.14,13.51,3.19,20.48s-5.86,13.47-11.17,12.25c25.25-21.14,52.71-46.3,58.76-84.85-13,23.21-6.93,58.44,9.18,77.92s39.45,25.44,61.3,23.66"
          transform="translate(-2 -128.46)"/>

    <path class="cls-2"
          data-start="110" data-duration="70"
          d="M40.91,422.72c11.44,6.07,26.09-2.78,30-18.15s-3.59-34.08-15.48-38.4C36,359.1,19.53,386.84,13.8,412.28c-5.3,23.52-6.32,51.18,5.26,70.41,13.52,22.44,40,24.79,59.76,12.75s34.18-35.05,47.32-57.88c50.49-87.75,92.42-184,124.44-285.68a1159.57,1159.57,0,0,0-58.77,230.58C255.44,314.34,308.86,229.77,348.09,135c-33,111.41-95,208-112.88,325.25-1.33,8.76-2.34,18.32.78,26.27,4.17,10.65,14.8,14.71,23.68,12s16.23-10.76,22.6-19.32c25.17-33.8,39.89-78.35,54.08-121.83l-17.58,86.82c-1.48,7.31-2.51,16.55,2.06,21.15,4.38,4.42,10.7,1.18,15.41-2.61,23.38-18.8,41.31-49,49.48-83.43a241.27,241.27,0,0,0-16.11,62.82c-.72,6.06-1.19,12.52.75,18.09,5,14.44,21.31,12.73,32,5.32,31-21.49,46.91-66.94,60.72-109.24q21.21-65,42.43-129.95c-17.64,82.14-50,157.29-82,231.52l65.14-121.91c5.62-10.52,11.58-21.44,20.26-27.35,9.05,12.62,3.11,34.55-7.39,45s-24,13.94-35.86,21.58-23,23-20.67,40.06c3.1,22.75,26.66,28.87,43.41,21.82,24.38-10.26,44.1-37.86,50.38-70.5-10.53,20.63-14.31,47-10.23,71.26,23.24-10.12,42.87-33.73,52.6-63.26-3.55,14.27-7.14,29.18-5.49,44s10.29,29.54,21.7,30.17c5.11.28,10.09-2.22,14.62-5.36C640,424,654,382,662.26,341.83S675.47,259,693.38,224.68a1477.32,1477.32,0,0,1-36.92,158.61c-5,17-10.37,34.86-8.75,53s13,36.26,26.89,34.66"
          transform="translate(-2 -128.46)"/>
    <path class="cls-2"
          data-start="180" data-duration="20"
          d="M819.78,267.47c-5,15.9-14.51,29.24-26.27,36.75-5.77,3.69-13,5.84-18.35,1.13-3.87-3.41-5.74-9.72-6.14-15.82-.93-14.25,5.13-28.15,13.61-37.1s19.09-13.63,29.68-16.86c9.07-2.76,19.16-4.4,27.21,1.76,9,6.85,12.74,21.86,11.85,35.43s-5.6,26.13-10.22,38.31q-31,81.6-61.94,163.2l45.14-107.42c3.16-7.52,6.42-15.21,11.33-20.89,9.57-11.1,23.32-12.51,35.44-17.79,28.1-12.23,48.78-49.39,49.15-88.31.16-16-3.47-33.24-13.29-42.63q-14.79,92.13-25.21,185.35c-1.73,15.52-3.15,32.55,3.19,45.84s23.84,17.33,29.48,3.51"
          transform="translate(-2 -128.46)"/>
    <path class="cls-2"
          data-start="200" data-duration="40"
          d="M950.71,347.7c-16.36,10.46-23.69,35.33-29.58,58-1.82,7-3.11,16.25,1.52,20.4,4,3.61,9.49.32,13.47-3.41,14.83-13.91,26.2-34.08,32-56.78a134.44,134.44,0,0,0-1.74,33.19c.43,6,2.35,13.33,6.91,13.83,2.38.26,4.57-1.6,6.48-3.5,14.43-14.34,24.79-35.61,28.67-58.85a218.82,218.82,0,0,1,16.28,36.9c2.18,6.47,4.14,13.51,3.19,20.48s-5.86,13.47-11.17,12.25c25.25-21.14,52.71-46.3,58.76-84.85-13,23.21-6.93,58.44,9.18,77.92s39.45,25.44,61.3,23.66"
          transform="translate(-2 -128.46)"/>
    <path class="cls-1"
          data-start="110" data-duration="70"
          d="M36.91,417.72c11.44,6.07,26.09-2.78,30-18.15s-3.59-34.08-15.48-38.4C32,354.1,15.53,381.84,9.8,407.28c-5.3,23.52-6.32,51.18,5.26,70.41,13.52,22.44,40,24.79,59.76,12.75s34.18-35.05,47.32-57.88c50.49-87.75,92.42-184,124.44-285.68a1159.57,1159.57,0,0,0-58.77,230.58C251.44,309.34,304.86,224.77,344.09,130c-33,111.41-95,208-112.88,325.25-1.33,8.76-2.34,18.32.78,26.27,4.17,10.65,14.8,14.71,23.68,12s16.23-10.76,22.6-19.32c25.17-33.8,39.89-78.35,54.08-121.83l-17.58,86.82c-1.48,7.31-2.51,16.55,2.06,21.15,4.38,4.42,10.7,1.18,15.41-2.61,23.38-18.8,41.31-49,49.48-83.43a241.27,241.27,0,0,0-16.11,62.82c-.72,6.06-1.19,12.52.75,18.09,5,14.44,21.31,12.73,32,5.32,31-21.49,46.91-66.94,60.72-109.24q21.21-65,42.43-129.95c-17.64,82.14-50,157.29-82,231.52l65.14-121.91c5.62-10.52,11.58-21.44,20.26-27.35,9.05,12.62,3.11,34.55-7.39,45s-24,13.94-35.86,21.58-23,23-20.67,40.06c3.1,22.75,26.66,28.87,43.41,21.82,24.38-10.26,44.1-37.86,50.38-70.5-10.53,20.63-14.31,47-10.23,71.26,23.24-10.12,42.87-33.73,52.6-63.26-3.55,14.27-7.14,29.18-5.49,44s10.29,29.54,21.7,30.17c5.11.28,10.09-2.22,14.62-5.36C636,419,650,377,658.26,336.83S671.47,254,689.38,219.68a1477.32,1477.32,0,0,1-36.92,158.61c-5,17-10.37,34.86-8.75,53s13,36.26,26.89,34.66"
          transform="translate(-2 -128.46)"/>
    <path class="cls-1"
          data-start="180" data-duration="20"
          d="M815.78,262.47c-5,15.9-14.51,29.24-26.27,36.75-5.77,3.69-13,5.84-18.35,1.13-3.87-3.41-5.74-9.72-6.14-15.82-.93-14.25,5.13-28.15,13.61-37.1s19.09-13.63,29.68-16.86c9.07-2.76,19.16-4.4,27.21,1.76,9,6.85,12.74,21.86,11.85,35.43s-5.6,26.13-10.22,38.31q-31,81.6-61.94,163.2l45.14-107.42c3.16-7.52,6.42-15.21,11.33-20.89,9.57-11.1,23.32-12.51,35.44-17.79,28.1-12.23,48.78-49.39,49.15-88.31.16-16-3.47-33.24-13.29-42.63q-14.79,92.13-25.21,185.35c-1.73,15.52-3.15,32.55,3.19,45.84s23.84,17.33,29.48,3.51"
          transform="translate(-2 -128.46)"/>
    <path class="cls-1"
          data-start="200" data-duration="40"
          d="M946.71,342.7c-16.36,10.46-23.69,35.33-29.58,58-1.82,7-3.11,16.25,1.52,20.4,4,3.61,9.49.32,13.47-3.41,14.83-13.91,26.2-34.08,32-56.78a134.44,134.44,0,0,0-1.74,33.19c.43,6,2.35,13.33,6.91,13.83,2.38.26,4.57-1.6,6.48-3.5,14.43-14.34,24.79-35.61,28.67-58.85a218.82,218.82,0,0,1,16.28,36.9c2.18,6.47,4.14,13.51,3.19,20.48s-5.86,13.47-11.17,12.25c25.25-21.14,52.71-46.3,58.76-84.85-13,23.21-6.93,58.44,9.18,77.92s39.45,25.44,61.3,23.66"
          transform="translate(-2 -128.46)"/>
</svg>